<?xml version="1.0" encoding="UTF-8"?>
<svg version="1.1" xmlns="http://www.w3.org/2000/svg" width="512" height="512">
<path d="M0 0 C1.1564653 -0.00852997 2.3129306 -0.01705994 3.50444031 -0.02584839 C4.76429749 -0.02494202 6.02415466 -0.02403564 7.32218933 -0.02310181 C8.6695391 -0.02908972 10.01688544 -0.03589588 11.36422729 -0.04345703 C15.01726284 -0.06109876 18.67020464 -0.06581167 22.32327867 -0.0670886 C24.60804289 -0.06851194 26.89278341 -0.07278502 29.17754173 -0.07808304 C37.15546044 -0.09657815 45.13331239 -0.10475441 53.11125183 -0.10317993 C60.53613315 -0.10197907 67.96072353 -0.12307173 75.38553125 -0.15466726 C81.76958223 -0.18086131 88.15353838 -0.1915459 94.53764266 -0.19026911 C98.3463643 -0.18976034 102.15482736 -0.19539601 105.96349525 -0.21662521 C109.54807635 -0.23606036 113.13215363 -0.23609666 116.71675301 -0.22159195 C118.6498828 -0.2185205 120.58301293 -0.23514388 122.5160675 -0.25247192 C130.63186134 -0.19402763 136.17963038 0.73247791 142.45573425 6.23226929 C142.99456238 6.88324585 143.5333905 7.53422241 144.08854675 8.20492554 C144.64284363 8.85332397 145.1971405 9.50172241 145.76823425 10.16976929 C148.83764902 14.62456856 149.46535157 18.45283641 149.48097229 23.81315613 C149.4855034 24.456985 149.49003452 25.10081387 149.49470294 25.76415271 C149.50732553 27.91351075 149.50572799 30.0626147 149.5040741 32.21200562 C149.51006073 33.75639673 149.51686659 35.30078486 149.52442932 36.84516907 C149.54208371 41.03537518 149.54678449 45.22549959 149.54806089 49.4157393 C149.54948347 52.0355217 149.55375512 54.6552834 149.55905533 57.27506065 C149.57755439 66.42007133 149.58572618 75.56502373 149.58415222 84.71005249 C149.58295115 93.2255497 149.60404707 101.74079331 149.63563955 110.25622636 C149.66181978 117.57445045 149.67251877 124.8925918 149.6712414 132.21086234 C149.67073224 136.57848413 149.67638977 140.94588056 149.6975975 145.31345558 C149.7170092 149.42331264 149.71708456 153.53273005 149.70256424 157.64260292 C149.7004786 159.14699447 149.7051625 160.65141375 149.71728516 162.1557579 C149.78626355 171.31198876 149.55384754 178.31447792 143.248703 185.50961304 C142.59772644 186.04844116 141.94674988 186.58726929 141.27604675 187.14242554 C140.62764832 187.69672241 139.97924988 188.25101929 139.311203 188.82211304 C134.36054423 192.23318147 129.81405508 192.54955719 123.9349823 192.49447632 C123.11495224 192.49476837 122.29492218 192.49506042 121.45004272 192.49536133 C118.7500079 192.49397229 116.05025189 192.4784312 113.3502655 192.46273804 C111.47411245 192.45900639 109.59795745 192.45616013 107.72180176 192.4541626 C102.79148447 192.44653808 97.86128561 192.42689971 92.93101501 192.40475464 C87.89695335 192.38427077 82.86287249 192.37515545 77.82878113 192.36508179 C67.95698439 192.34365273 58.08527543 192.30953101 48.21354675 192.26742554 C47.92479675 193.03055054 47.63604675 193.79367554 47.33854675 194.57992554 C44.63911517 201.02856766 40.4709785 204.26706606 34.32737732 207.22650146 C28.11178389 209.30431549 21.61787784 208.87267966 15.14323425 208.75570679 C13.61054141 208.74636205 12.07783346 208.7392538 10.54512024 208.73426819 C6.54335588 208.71532841 2.54252296 208.66634417 -1.45887756 208.61074829 C-5.55492051 208.55927126 -9.65111642 208.53669393 -13.74739075 208.51156616 C-21.76083536 208.45820919 -29.7735279 208.37305922 -37.78645325 208.26742554 C-37.78423264 209.38384933 -37.78201202 210.50027313 -37.77972412 211.65052795 C-37.75945371 222.17101266 -37.74446227 232.69149341 -37.73464108 243.21199322 C-37.72942218 248.62069704 -37.72234251 254.02938509 -37.71101379 259.43807983 C-37.7001497 264.6576077 -37.69416892 269.8771204 -37.691576 275.09665871 C-37.68972812 277.08815563 -37.68611971 279.07965173 -37.68072319 281.0711422 C-37.67346607 283.86013967 -37.67246429 286.64907444 -37.67292786 289.43807983 C-37.66933258 290.26166992 -37.6657373 291.08526001 -37.66203308 291.93380737 C-37.66340775 292.69795456 -37.66478241 293.46210175 -37.66619873 294.24940491 C-37.66481604 295.23802788 -37.66481604 295.23802788 -37.66340542 296.24662304 C-37.78645325 298.26742554 -37.78645325 298.26742554 -38.35358047 300.68720436 C-38.85129136 303.65390552 -38.50730114 305.6444235 -37.83267212 308.56898499 C-37.59581696 309.61844299 -37.35896179 310.667901 -37.1149292 311.74916077 C-36.71220543 313.46109367 -36.71220543 313.46109367 -36.30134583 315.20761108 C-36.02506348 316.41813141 -35.74878113 317.62865173 -35.46412659 318.87585449 C-34.70461101 322.19455459 -33.93611676 325.51093318 -33.16362977 328.82662177 C-32.35332531 332.31453693 -31.55472539 335.80512978 -30.75488281 339.29545593 C-29.23420581 345.92330797 -27.7032712 352.54874568 -26.16854447 359.17335683 C-24.26890343 367.37526036 -22.38203038 375.58009084 -20.49543762 383.78500366 C-18.56286602 392.18857252 -16.62931411 400.59190277 -14.6867981 408.99317932 C-13.04773052 416.08330854 -11.41311128 423.17443843 -9.78645325 430.26742554 C-9.56275936 431.24271336 -9.33906548 432.21800117 -9.10859299 433.22284317 C-8.52275971 435.78603513 -7.94179003 438.35025986 -7.36335754 440.91513062 C-7.19842961 441.63632174 -7.03350168 442.35751287 -6.86357594 443.10055828 C-6.23810834 445.89837623 -5.78645325 448.38880739 -5.78645325 451.26742554 C-4.79645325 451.22101929 -3.80645325 451.17461304 -2.78645325 451.12680054 C5.73378211 450.84304444 12.29158108 450.90990547 18.91667175 456.77523804 C23.48116867 461.53915472 25.97650711 466.98634592 26.342453 473.59555054 C26.02214431 479.30286898 24.38233887 483.34805787 20.21354675 487.26742554 C10.44795113 493.56405176 -1.19641619 496.6466127 -12.16804504 500.12875366 C-15.35129117 501.14317057 -18.52474452 502.18487572 -21.69856262 503.22836304 C-23.74945857 503.88628729 -25.80087454 504.54259319 -27.8528595 505.19711304 C-28.78650833 505.5063974 -29.72015717 505.81568176 -30.68209839 506.13433838 C-38.12615583 508.45444418 -45.62382633 509.65496784 -53.16145325 507.14242554 C-58.58462836 503.26872903 -61.26363829 498.97560926 -63.266922 492.70492554 C-63.47739166 492.06082733 -63.68786133 491.41672913 -63.90470886 490.75311279 C-64.60699915 488.59505543 -65.2901444 486.4314029 -65.97395325 484.26742554 C-66.47429105 482.71956558 -66.97621256 481.17221681 -67.47956848 479.62533569 C-68.30851923 477.07677176 -69.13617197 474.52783839 -69.95901489 471.97729492 C-72.4123869 464.37779581 -74.93149611 456.80110297 -77.46614075 449.22836304 C-77.8690181 448.02431824 -78.27189545 446.82027344 -78.6869812 445.57974243 C-79.50241101 443.1435494 -80.31800839 440.70741246 -81.1337738 438.27133179 C-83.08463467 432.44545049 -85.03338912 426.61888049 -86.9778595 420.79086304 C-87.31804108 419.77543427 -87.65822266 418.76000549 -88.00871277 417.71380615 C-93.78645325 400.38275428 -93.78645325 400.38275428 -93.78645325 396.26742554 C-94.44645325 396.26742554 -95.10645325 396.26742554 -95.78645325 396.26742554 C-96.14827698 397.29911865 -96.14827698 397.29911865 -96.51741028 398.35165405 C-98.02077842 401.80581445 -99.98569429 404.81497796 -102.09114075 407.91976929 C-102.52289108 408.56449692 -102.95464142 409.20922455 -103.3994751 409.87348938 C-104.3308997 411.26308298 -105.26445986 412.65124706 -106.19993591 414.03811646 C-107.67467276 416.22452446 -109.14375114 418.41463629 -110.61140442 420.60580444 C-113.15671118 424.40419126 -115.70665208 428.19944032 -118.25794983 431.99380493 C-122.10391555 437.71460791 -125.94430426 443.43911667 -129.7769928 449.16882324 C-131.08237184 451.11767056 -132.39204529 453.06358227 -133.70198059 455.0093689 C-134.49726409 456.19681712 -135.29235943 457.38439138 -136.0872345 458.57211304 C-136.77986389 459.6032019 -137.47249329 460.63429077 -138.18611145 461.69662476 C-139.90538352 464.236057 -139.90538352 464.236057 -140.78645325 467.26742554 C-140.04524231 467.37055054 -139.30403137 467.47367554 -138.5403595 467.57992554 C-133.21508192 468.90935654 -129.33688644 472.89211007 -126.3841095 477.41586304 C-123.06767503 484.14315004 -122.67809242 490.45484021 -124.97395325 497.57992554 C-126.8141915 501.87381479 -129.26349941 504.10475018 -133.53726006 506.07426548 C-138.32660769 507.98536996 -142.36057245 508.65003755 -147.57600403 508.67147827 C-148.67520676 508.68177315 -148.67520676 508.68177315 -149.7966156 508.692276 C-152.19186893 508.7104114 -154.58645928 508.70672742 -156.98176575 508.70101929 C-158.65989899 508.70558596 -160.33803037 508.71089298 -162.01615906 508.71690369 C-165.52121108 508.72580753 -169.02603489 508.72344113 -172.53108215 508.71347046 C-177.01456863 508.70195657 -181.49727031 508.72224266 -185.98065376 508.7513876 C-189.44144151 508.76975781 -192.90204118 508.76945601 -196.36286545 508.76375008 C-198.01582316 508.76359711 -199.66879381 508.7696211 -201.32170486 508.78204155 C-203.63353213 508.79697424 -205.94390868 508.78626132 -208.25569153 508.76913452 C-210.22470932 508.76888527 -210.22470932 508.76888527 -212.23350525 508.76863098 C-217.66066549 508.00303513 -220.70207273 505.25751209 -224.66145325 501.64242554 C-227.59289257 496.98661014 -227.68206864 493.65687654 -226.78645325 488.26742554 C-224.88878168 483.24343801 -222.42780334 478.56160883 -219.91145325 473.82992554 C-219.21526757 472.48497353 -218.52086532 471.13909696 -217.82820129 469.79232788 C-216.13655732 466.5148558 -214.42288194 463.24967365 -212.69764709 459.98977661 C-211.45400193 457.63902152 -210.22016097 455.28315523 -208.985672 452.92758179 C-207.8039361 450.67822004 -206.61929016 448.43064083 -205.4256134 446.18759155 C-201.56203246 438.91604816 -197.91029422 431.54204696 -194.24665833 424.16830444 C-190.79317681 417.2347634 -187.23477026 410.36698974 -183.59529114 403.52963257 C-179.46354104 395.73252626 -175.5417686 387.8320912 -171.63215637 379.92172241 C-171.14553528 378.94010132 -170.65891418 377.95848022 -170.157547 376.94711304 C-169.7236969 376.06781128 -169.2898468 375.18850952 -168.84284973 374.28256226 C-167.78645325 372.26742554 -167.78645325 372.26742554 -166.78645325 371.26742554 C-166.68057181 368.48648075 -166.64618864 365.73629819 -166.66145325 362.95492554 C-166.66411194 362.08206909 -166.66677063 361.20921265 -166.66950989 360.30990601 C-166.74703178 348.97600944 -167.17312622 337.6524721 -167.66291809 326.32992554 C-167.76713966 323.74621917 -167.84219886 321.1649611 -167.8997345 318.57992554 C-168.0403924 311.53466909 -168.0403924 311.53466909 -171.28645325 305.51742554 C-172.52395325 304.40367554 -172.52395325 304.40367554 -173.78645325 303.26742554 C-175.22863426 300.38306352 -174.92245434 297.89165299 -174.93362427 294.66726685 C-174.93730096 293.98123202 -174.94097764 293.29519719 -174.94476575 292.58837342 C-174.95582265 290.2779328 -174.95964996 287.96753712 -174.9634552 285.65707397 C-174.96971883 284.00463721 -174.97636554 282.35220186 -174.98336792 280.69976807 C-175.00443984 275.25878892 -175.01477988 269.81780942 -175.0247345 264.37680054 C-175.02878225 262.50182328 -175.03289918 260.62684616 -175.03708458 258.7518692 C-175.05615078 249.93443121 -175.07037332 241.11700161 -175.07869655 232.29954696 C-175.0884454 222.1401572 -175.11469715 211.9809867 -175.15519744 201.82167411 C-175.18545206 193.96075633 -175.20017464 186.099901 -175.20347756 178.23892617 C-175.20581934 173.54912615 -175.21466396 168.85955994 -175.23993874 164.16982269 C-175.2633854 159.74729949 -175.26738673 155.32516118 -175.25717735 150.90259171 C-175.25668572 149.28944995 -175.26289454 147.67628819 -175.2767334 146.06320572 C-175.43128845 126.96027163 -170.38860174 111.51739138 -156.98957825 97.41195679 C-154.01199888 94.51356836 -151.46128505 92.24618112 -147.78645325 90.26742554 C-144.19958068 90.72728099 -142.04981011 92.84250792 -139.28645325 95.01742554 C-126.3439531 105.01844838 -110.50256386 108.36479212 -94.47395325 106.70492554 C-82.80761291 104.92206942 -72.18649194 100.45119495 -62.78645325 93.26742554 C-53.09870863 97.58502347 -46.55582753 107.90358315 -42.4622345 117.31039429 C-39.78645325 124.41764484 -39.78645325 124.41764484 -39.78645325 128.26742554 C-34.17645325 128.26742554 -28.56645325 128.26742554 -22.78645325 128.26742554 C-22.79533569 126.89457397 -22.80421814 125.52172241 -22.81336975 124.10726929 C-22.89451136 111.15959933 -22.95444567 98.21198106 -22.99370193 85.26411438 C-23.0145626 78.60770608 -23.04285297 71.9515579 -23.08821106 65.29525757 C-23.13172201 58.86969995 -23.15560183 52.44433983 -23.16596222 46.01864624 C-23.17334406 43.56907035 -23.18775905 41.11950508 -23.20937347 38.67001343 C-23.23847613 35.23479993 -23.24240622 31.80039904 -23.24055481 28.36508179 C-23.25493591 27.35591202 -23.26931702 26.34674225 -23.28413391 25.30699158 C-23.24137575 17.95881396 -21.71044924 12.60415257 -16.8216095 7.02523804 C-15.84514465 6.21699585 -15.84514465 6.21699585 -14.84895325 5.39242554 C-14.20055481 4.83812866 -13.55215637 4.28383179 -12.8841095 3.71273804 C-8.69875163 0.82897191 -5.04137595 0.0168523 0 0 Z " fill="#2D4356" transform="translate(294.7864532470703,3.732574462890625)"/>
<path d="M0 0 C1.58822823 0.63370041 3.17147759 1.27999553 4.75 1.9375 C18.37355549 6.79187035 33.54002251 7.79687165 46.9375 1.625 C49.28125 0.84375 49.28125 0.84375 51.75 0.9375 C61.78841272 7.25031625 69.78749963 17.60062769 73.1181488 28.92088318 C74.30654505 34.59458629 74.05796753 40.29241406 73.9375 46.0625 C73.91719727 47.92648438 73.91719727 47.92648438 73.89648438 49.828125 C73.86144295 52.86504831 73.81231433 55.90103467 73.75 58.9375 C73.00497726 58.94336624 72.25995453 58.94923248 71.49235535 58.95527649 C64.47347211 59.01316439 57.45491103 59.08521813 50.43635082 59.17321491 C46.82795123 59.21795551 43.21966549 59.25720305 39.61108398 59.28393555 C36.12900415 59.30993241 32.64736161 59.35030795 29.16555214 59.40068626 C27.18974801 59.42550764 25.2137748 59.43540939 23.23783875 59.44514465 C21.43631096 59.47483589 21.43631096 59.47483589 19.59838867 59.50512695 C18.00954109 59.52178154 18.00954109 59.52178154 16.38859558 59.53877258 C13.72175546 59.72520442 13.72175546 59.72520442 11.90937805 61.34342957 C10.46306646 63.33201521 10.34724563 64.49511512 10.375 66.9375 C10.36726563 67.618125 10.35953125 68.29875 10.3515625 69 C10.88261296 71.58236304 11.657961 72.33929326 13.75 73.9375 C16.42522896 74.3839395 16.42522896 74.3839395 19.50595093 74.30258179 C20.70607315 74.30789413 21.90619537 74.31320648 23.14268494 74.31867981 C24.46119949 74.3093895 25.77971405 74.30009918 27.13818359 74.29052734 C28.53936404 74.29135805 29.94054426 74.29357395 31.34172058 74.29707336 C34.36034404 74.30202626 37.37877335 74.29791877 40.39738083 74.28705978 C45.1709776 74.27071768 49.94433002 74.27915576 54.71792603 74.29190063 C67.43523241 74.32204148 80.15249527 74.32055952 92.86981928 74.30164778 C101.2232675 74.28931628 109.57643957 74.29117039 117.92985594 74.32003558 C122.67467217 74.33527832 127.41873952 74.32777468 132.16350913 74.30332541 C135.1171124 74.29325365 138.0703722 74.30394672 141.02393532 74.32044029 C143.04473712 74.32553659 145.06555375 74.30576851 147.08625793 74.28526306 C156.96169164 74.37496212 156.96169164 74.37496212 160.06387329 77.28823853 C162.1609728 80.58322514 162.54819269 82.10617509 161.75 85.9375 C159.17268104 89.17028457 157.68247128 90.75568388 153.57186127 91.55718327 C152.36619759 91.55475337 151.16053391 91.55232347 149.91833496 91.54981995 C149.24380453 91.55535336 148.56927409 91.56088677 147.87430334 91.56658787 C145.62065373 91.57913909 143.36878296 91.55620593 141.11523438 91.53344727 C139.49701029 91.53535158 137.87878752 91.53950788 136.26057434 91.54574585 C132.7791529 91.5545336 129.29823002 91.54778746 125.81684875 91.52908516 C120.31213559 91.49999676 114.80785212 91.50778471 109.30310059 91.52098083 C98.6124527 91.54164493 87.92201272 91.52604286 77.23137665 91.50550842 C63.62338994 91.48036616 50.01551885 91.46749179 36.4075284 91.49546474 C30.93521458 91.50542334 25.46341515 91.49527829 19.99115753 91.46955693 C16.58748961 91.45739013 13.18398252 91.46158651 9.78030968 91.47013474 C8.20208613 91.47067004 6.62384299 91.46432618 5.04567909 91.45059395 C2.89054232 91.43275167 0.73680696 91.43946851 -1.41833496 91.4521637 C-2.62399864 91.44935678 -3.82966232 91.44654985 -5.07186127 91.44365788 C-8.88134452 92.03560287 -10.56385278 93.21631396 -13.25 95.9375 C-13.63989216 98.31116049 -13.63989216 98.31116049 -13.0625 100.6875 C-12.92457031 101.48671875 -12.78664062 102.2859375 -12.64453125 103.109375 C-12.51433594 103.71265625 -12.38414062 104.3159375 -12.25 104.9375 C-8.56264677 106.16661774 -5.13216418 106.11391093 -1.2902832 106.14282227 C-0.46721019 106.15285499 0.35586283 106.16288771 1.20387745 106.17322445 C3.86896255 106.20461433 6.53406253 106.22938265 9.19921875 106.25390625 C10.84428391 106.27230924 12.48934428 106.2911459 14.13439941 106.3104248 C20.2353762 106.37887638 26.3364449 106.43892666 32.4375 106.5 C46.070625 106.644375 59.70375 106.78875 73.75 106.9375 C73.75 135.9775 73.75 165.0175 73.75 194.9375 C39.43 194.9375 5.11 194.9375 -30.25 194.9375 C-30.45151517 154.58520652 -30.45151517 154.58520652 -30.49414062 137.63085938 C-30.52376903 125.9402363 -30.55853452 114.24979388 -30.62719727 102.55932617 C-30.67718776 94.04389003 -30.70932777 85.52860094 -30.72044247 77.01302212 C-30.72693486 72.50813818 -30.74208697 68.00367473 -30.77865028 63.49892616 C-30.81285772 59.24957423 -30.82300368 55.0008117 -30.81553841 50.75133514 C-30.816902 49.20064517 -30.82668631 47.64993328 -30.84602737 46.09936333 C-31.01207292 32.08760968 -28.08550342 20.3216782 -18.25 9.9375 C-15.69318835 7.44510415 -13.0361553 5.1675708 -10.25 2.9375 C-9.280625 2.07125 -8.31125 1.205 -7.3125 0.3125 C-3.87735156 -1.22981154 -3.39832777 -1.12484054 0 0 Z " fill="#FB775D" transform="translate(166.25,105.0625)"/>
<path d="M0 0 C46.2 0 92.4 0 140 0 C140.103125 17.551875 140.20625 35.10375 140.3125 53.1875 C140.35802002 58.72813232 140.40354004 64.26876465 140.45043945 69.97729492 C140.47302246 76.7467041 140.47302246 76.7467041 140.47721863 79.91645813 C140.48489317 82.12878954 140.50247184 84.34110011 140.52787781 86.55329895 C140.56445408 89.90593762 140.56953106 93.25729926 140.56762695 96.61010742 C140.58561749 97.59453166 140.60360804 98.5789559 140.62214375 99.59321117 C140.58853735 104.01055996 140.42992999 106.34602266 137.95877075 110.10496521 C134.28499129 112.45794909 131.32803237 112.73271392 127.09204102 112.71044922 C126.31090942 112.72563599 125.52977783 112.74082275 124.72497559 112.75646973 C122.15084416 112.79875947 119.57836301 112.80376471 117.00390625 112.8046875 C115.20937932 112.81822027 113.41485894 112.832648 111.62034607 112.84793091 C107.8618813 112.87333281 104.10399648 112.87862981 100.34545898 112.87158203 C95.53470068 112.86548088 90.72708342 112.92338955 85.91699314 112.99824333 C82.21160614 113.0463902 78.50697594 113.05329102 74.8013134 113.0485878 C73.02825722 113.05263475 71.25517189 113.071099 69.48242378 113.10439682 C55.58108278 113.3387921 55.58108278 113.3387921 51.65109253 110.01104736 C50.14357132 107.72735983 49.10534502 105.49295652 48 103 C35.063177 92.26518943 14.82127417 96.42346498 0 96 C0 64.32 0 32.64 0 0 Z " fill="#D58650" transform="translate(288,68)"/>
<path d="M0 0 C19.14 0 38.28 0 58 0 C56.87461017 13.50467798 56.87461017 13.50467798 56.01611328 18.11645508 C55.73043991 19.67285454 55.73043991 19.67285454 55.43899536 21.26069641 C55.23483002 22.33611191 55.03066467 23.4115274 54.8203125 24.51953125 C54.50016678 26.23374519 54.50016678 26.23374519 54.17355347 27.98258972 C53.72439327 30.377234 53.27213595 32.77129928 52.81689453 35.16479492 C52.1239077 38.81825868 51.44620121 42.47434265 50.76953125 46.13085938 C50.32904344 48.46892322 49.88766801 50.80682005 49.4453125 53.14453125 C49.24519562 54.2300679 49.04507874 55.31560455 48.83889771 56.43403625 C47.36574175 64.08487852 45.34818379 70.27404243 41.0078125 76.82421875 C40.39953613 77.74855713 39.79125977 78.67289551 39.16455078 79.62524414 C38.15497314 81.14106079 38.15497314 81.14106079 37.125 82.6875 C36.0110007 84.37599501 34.89700896 86.06449503 33.78317261 87.75309753 C32.50587592 89.68730837 31.2258384 91.61968347 29.9453125 93.55175781 C24.62912969 101.5758484 19.33886728 109.6170827 14.04241943 117.65420532 C11.56501713 121.41186826 9.08480733 125.16767374 6.60421753 128.92323303 C4.8500451 131.58381041 3.10315117 134.24906776 1.35644531 136.91455078 C-0.84758202 140.27234226 -3.08879686 143.59991417 -5.36425781 146.90966797 C-5.88545197 147.68036118 -6.40664612 148.45105438 -6.94363403 149.24510193 C-7.91394509 150.67939035 -8.897253 152.1050096 -9.89596558 153.51966858 C-12.00872468 156.67453488 -13.02135551 158.51056732 -12.85351562 162.35717773 C-11.74732355 165.82298526 -11.74732355 165.82298526 -9 168 C-5.22496201 168.61615563 -1.47678723 168.88640098 2.3359375 169.1796875 C6.67721273 170.15161479 8.28048543 171.53879964 11 175 C10.9375 177.25 10.9375 177.25 10 179 C7.16605613 180.41697193 4.79126262 180.11945929 1.62255859 180.11352539 C0.64188667 180.11374443 0.64188667 180.11374443 -0.3585968 180.1139679 C-2.52295227 180.11327036 -4.68722204 180.1054854 -6.8515625 180.09765625 C-8.35086012 180.09579151 -9.85015834 180.09436787 -11.34945679 180.09336853 C-15.29831622 180.08954779 -19.24713896 180.07972128 -23.19598389 180.06866455 C-27.22440087 180.05844091 -31.25282378 180.05386887 -35.28125 180.04882812 C-43.18751685 180.03809862 -51.09375386 180.0210275 -59 180 C-53.61460055 168.46712377 -48.06838382 157.04592158 -42.19970703 145.7512207 C-40.23191146 141.96391128 -38.27452248 138.17122662 -36.31640625 134.37890625 C-35.93622345 133.64314362 -35.55604065 132.90738098 -35.16433716 132.14932251 C-32.22662082 126.45729071 -29.34374239 120.73959371 -26.5 115 C-23.87516237 109.70559259 -21.20710334 104.44131787 -18.43261719 99.22351074 C-17.60804586 97.66373769 -16.7903917 96.10026959 -15.98260498 94.53173828 C-13.76397574 90.23712969 -11.44808638 86.06700636 -8.90087891 81.95800781 C0.93924374 65.35671598 1.5371288 50.79084368 0.82397461 32.14764404 C0.69857032 28.50688435 0.6451952 24.86499342 0.5859375 21.22265625 C0.46573699 14.14284613 0.23088441 7.08045513 0 0 Z " fill="#E0EAF3" transform="translate(144,316)"/>
<path d="M0 0 C1.31266846 0.01244751 1.31266846 0.01244751 2.65185547 0.02514648 C14.39448494 0.33016394 23.12996904 4.00450082 32.1875 11.4375 C32.89777344 12.01113281 33.60804688 12.58476562 34.33984375 13.17578125 C42.59843227 20.57839323 47.73965748 31.4181133 49.03515625 42.37890625 C49.74469071 56.62417507 46.89120451 69.62743488 37.1875 80.4375 C36.61386719 81.11425781 36.04023438 81.79101562 35.44921875 82.48828125 C27.83260549 90.86182502 16.87345571 96.22565795 5.515625 96.7734375 C-3.90523445 96.94110779 -12.29318085 96.9419676 -20.8125 92.4375 C-22.09833984 91.78394531 -22.09833984 91.78394531 -23.41015625 91.1171875 C-34.61185264 84.9334456 -42.34469026 75.81526175 -46.43920898 63.56201172 C-47.83102201 58.55297007 -48.16385159 53.74474704 -48.125 48.5625 C-48.11936035 47.77093506 -48.1137207 46.97937012 -48.10791016 46.16381836 C-47.9834734 40.16190118 -47.29954939 34.95799599 -44.8125 29.4375 C-44.4103125 28.53773437 -44.008125 27.63796875 -43.59375 26.7109375 C-37.33415404 14.08741899 -27.64709773 6.62733896 -14.58203125 1.80078125 C-9.68717307 0.22245169 -5.1169787 -0.06298278 0 0 Z " fill="#2D4356" transform="translate(191.8125,-0.4375)"/>
<path d="M0 0 C7.59 0 15.18 0 23 0 C26.85426676 16.82862967 30.70511655 33.65786185 34.5 50.5 C39.96957737 74.75584398 45.49846326 98.99656605 51.21069336 123.1965332 C51.36497299 123.85045547 51.51925262 124.50437775 51.6782074 125.17811584 C52.13658458 127.11573313 52.59855004 129.05250039 53.06054688 130.98925781 C53.74129624 133.8629952 54.38650806 136.7428882 55.01757812 139.62792969 C55.18948669 140.39797333 55.36139526 141.16801697 55.53851318 141.96139526 C55.86877008 143.44311035 56.19136029 144.92656261 56.50494385 146.41189575 C57.36569101 150.23214097 58.22195256 153.16859755 61 156 C63.17403523 156.51922721 63.17403523 156.51922721 65.5 156.3125 C66.2734375 156.28800781 67.046875 156.26351562 67.84375 156.23828125 C70.18084889 156.05644612 70.18084889 156.05644612 73 155 C80.13669065 154.42446043 80.13669065 154.42446043 84 157 C84.66 157.66 85.32 158.32 86 159 C85.93237305 160.81982422 85.93237305 160.81982422 85 163 C82.66001319 164.18556237 80.54859343 165.05387619 78.08203125 165.8828125 C77.37013138 166.13515656 76.65823151 166.38750061 75.92475891 166.64749146 C73.62341078 167.45377377 71.31411506 168.23117462 69 169 C67.87050934 169.37650696 67.87050934 169.37650696 66.71820068 169.76062012 C62.16034115 171.26841516 57.58763069 172.7244865 53.00415039 174.15234375 C50.64191339 174.88922029 48.28282841 175.63564634 45.92382812 176.3828125 C44.41163397 176.8573309 42.89927067 177.33131072 41.38671875 177.8046875 C40.33686043 178.13737137 40.33686043 178.13737137 39.26579285 178.47677612 C36.3916648 179.3665003 34.0288291 180 31 180 C23.08976276 156.61013376 15.44586945 133.13422333 7.83812332 109.64464188 C7.06718832 107.2644746 6.29593263 104.88441143 5.52462769 102.50436401 C4.28297315 98.6724091 3.04241624 94.84010041 1.8027153 91.00751305 C1.3429207 89.586255 0.8829018 88.1650695 0.4226265 86.74396706 C-0.63806943 83.46829282 -1.69481135 80.19146916 -2.74263 76.91165161 C-3.61913804 74.16968235 -4.51870073 71.43634 -5.42863464 68.70529175 C-5.89228592 67.2868442 -6.35569728 65.86831821 -6.81884766 64.44970703 C-7.03772109 63.80644596 -7.25659452 63.16318489 -7.48210049 62.50043106 C-11.1598265 51.10316528 -7.40927282 38.77080537 -5.0625 27.375 C-4.5294033 24.73760821 -4.00089881 22.09930519 -3.47265625 19.4609375 C-3.2214502 18.21022461 -2.97024414 16.95951172 -2.71142578 15.67089844 C-1.70205472 10.46262691 -0.84051416 5.23798679 0 0 Z " fill="#DFE9F2" transform="translate(218,316)"/>
<path d="M0 0 C1.09348755 -0.01409912 2.1869751 -0.02819824 3.31359863 -0.04272461 C5.09824524 -0.02754288 5.09824524 -0.02754288 6.91894531 -0.01205444 C8.17960815 -0.02081604 9.440271 -0.02957764 10.73913574 -0.03860474 C14.18972396 -0.06136323 17.63956319 -0.0525769 21.09016418 -0.03670931 C24.70466093 -0.02403201 28.31909443 -0.03579548 31.93359375 -0.04364014 C38.00304657 -0.05273145 44.07219498 -0.0407627 50.14160156 -0.01693726 C57.15427419 0.01027344 64.16621995 0.00145888 71.17887497 -0.02606928 C77.20454496 -0.04877443 83.22999639 -0.0519537 89.25569534 -0.03887594 C92.85251018 -0.03108898 96.44898359 -0.03001852 100.04577637 -0.04655838 C104.05601908 -0.06371204 108.06501292 -0.03992518 112.07519531 -0.01205444 C113.26495972 -0.0221756 114.45472412 -0.03229675 115.68054199 -0.04272461 C117.32077332 -0.02157593 117.32077332 -0.02157593 118.99414062 0 C120.41548309 0.00282769 120.41548309 0.00282769 121.86553955 0.00571251 C124.49707031 0.63491821 124.49707031 0.63491821 129.49707031 5.63491821 C129.49707031 14.54491821 129.49707031 23.45491821 129.49707031 32.63491821 C83.29707031 32.63491821 37.09707031 32.63491821 -10.50292969 32.63491821 C-10.50292969 0.02089507 -10.50292969 0.02089507 0 0 Z " fill="#FEDA80" transform="translate(298.5029296875,19.365081787109375)"/>
<path d="M0 0 C7.47970656 4.91557335 12.35358153 11.44158253 15 20 C16.37208629 30.22151105 15.2193229 38.94323004 9.3046875 47.43359375 C4.02362446 53.94405406 -2.66992189 58.42740581 -11 60 C-19.23379892 60.6723718 -25.87127454 60.3368672 -33 56 C-34.04800781 55.38125 -34.04800781 55.38125 -35.1171875 54.75 C-41.88892926 50.25254132 -45.40284445 43.99288888 -48.375 36.5625 C-50.30029727 25.58830556 -48.60269187 16.9837914 -42.3125 7.75 C-31.90561947 -5.2651873 -14.4395171 -7.73624052 0 0 Z " fill="#E0EAF3" transform="translate(209,20)"/>
<path d="M0 0 C2 2 2 2 2.4375 4.8125 C1.84768558 9.10971934 0.33988695 10.30532617 -3 13 C-6.17813873 13.62247658 -6.17813873 13.62247658 -9.83166504 13.61904907 C-10.84346069 13.62840754 -10.84346069 13.62840754 -11.87569666 13.63795507 C-14.12932214 13.65284236 -16.38120468 13.63225246 -18.63476562 13.61181641 C-20.25299188 13.61535834 -21.87121455 13.62113677 -23.48942566 13.62898254 C-26.97083569 13.64115654 -30.45175563 13.63770056 -33.93315125 13.62215042 C-39.43787458 13.59783779 -44.94216853 13.60932668 -50.44689941 13.62582397 C-60.14453094 13.65031732 -69.84196724 13.64451788 -79.53961182 13.63201904 C-94.14058652 13.61343432 -108.74152428 13.61827048 -123.3424716 13.65205324 C-128.81470505 13.66357113 -134.28662639 13.65912312 -139.75884247 13.64203286 C-143.16248945 13.63413741 -146.56604549 13.63838488 -149.96969032 13.64574242 C-151.54790667 13.64655291 -153.1261354 13.64219948 -154.70432091 13.63229942 C-156.85925567 13.61943547 -159.01340239 13.6249539 -161.16833496 13.63491821 C-162.37399864 13.63303308 -163.57966232 13.63114796 -164.82186127 13.6292057 C-168.28258868 14.0329697 -170.18725197 14.99570676 -173 17 C-173.8125 13.8125 -173.8125 13.8125 -174 10 C-171.47363362 6.6901458 -169.95026921 5.18512371 -165.81906796 4.38031673 C-164.61210546 4.38274663 -163.40514296 4.38517653 -162.16160583 4.38768005 C-161.14875183 4.37937993 -161.14875183 4.37937993 -160.11543614 4.37091213 C-157.85945319 4.35836093 -155.60524725 4.38129396 -153.34936523 4.40405273 C-151.72951864 4.40214844 -150.10967335 4.39799218 -148.48983765 4.39175415 C-145.00514018 4.38296667 -141.52094082 4.38971188 -138.03628349 4.40841484 C-132.52764442 4.43749875 -127.01943484 4.42971678 -121.51075745 4.41651917 C-110.81415103 4.3958558 -100.11775244 4.411459 -89.42115784 4.43199158 C-75.80188138 4.45713546 -62.18272008 4.4700242 -48.56343991 4.44203526 C-43.08583062 4.43206986 -37.60873484 4.44223736 -32.1311816 4.46794307 C-28.72646967 4.48009835 -25.3219188 4.4759191 -21.917202 4.46736526 C-20.33694587 4.46682936 -18.7566703 4.47318944 -17.17647362 4.48690605 C-15.02098522 4.50471013 -12.86690323 4.49804966 -10.71141052 4.4853363 C-8.90153231 4.48954669 -8.90153231 4.48954669 -7.0550909 4.49384212 C-3.43041723 3.90792943 -2.2614657 2.81824066 0 0 Z " fill="#D0624F" transform="translate(326,183)"/>
<path d="M0 0 C1.26066284 -0.0087616 2.52132568 -0.01752319 3.82019043 -0.02655029 C7.27077865 -0.04930879 10.72061787 -0.04052246 14.17121887 -0.02465487 C17.78571561 -0.01197757 21.40014912 -0.02374103 25.01464844 -0.03158569 C31.08410126 -0.04067701 37.15324967 -0.02870826 43.22265625 -0.00488281 C50.23532888 0.02232789 57.24727464 0.01351333 64.25992966 -0.01401484 C70.28559965 -0.03671999 76.31105108 -0.03989926 82.33675003 -0.02682149 C85.93356487 -0.01903454 89.53003828 -0.01796408 93.12683105 -0.03450394 C97.13707377 -0.0516576 101.14606761 -0.02787074 105.15625 0 C106.3460144 -0.01012115 107.53577881 -0.02024231 108.76159668 -0.03067017 C117.71438893 0.08476462 117.71438893 0.08476462 120.82397461 3.04751587 C123.45492599 6.9462947 122.96684538 9.06007213 122.578125 13.64697266 C122.145 13.17259766 121.711875 12.69822266 121.265625 12.20947266 C118.24155885 9.40941141 115.26260566 9.52155454 111.34020996 9.51998901 C109.71238838 9.51575928 109.71238838 9.51575928 108.05168152 9.51144409 C106.26556206 9.51448044 106.26556206 9.51448044 104.44335938 9.51757812 C103.18952957 9.51582581 101.93569977 9.51407349 100.64387512 9.51226807 C97.20385728 9.50861704 93.76389946 9.50947845 90.32388496 9.51264715 C86.72581018 9.51517683 83.12773797 9.51283151 79.52966309 9.51126099 C73.48705586 9.50944108 67.44446084 9.51184094 61.40185547 9.51660156 C54.41328054 9.52204384 47.42473479 9.52028106 40.43616056 9.51477516 C34.43864807 9.51023896 28.44114436 9.50959597 22.4436307 9.51221383 C18.86038008 9.5137738 15.27714317 9.51397798 11.69389343 9.51067734 C7.70021427 9.50725568 3.70656785 9.51199667 -0.28710938 9.51757812 C-1.47785568 9.51555389 -2.66860199 9.51352966 -3.89543152 9.51144409 C-5.5232531 9.51567383 -5.5232531 9.51567383 -7.18395996 9.51998901 C-8.60090275 9.52055455 -8.60090275 9.52055455 -10.04647064 9.52113152 C-12.57207216 9.54948438 -12.57207216 9.54948438 -15.421875 10.64697266 C-16.63069596 12.64713732 -16.63069596 12.64713732 -17.421875 14.64697266 C-17.55844716 13.25393661 -17.65458649 11.85691145 -17.734375 10.45947266 C-17.79238281 9.68216797 -17.85039062 8.90486328 -17.91015625 8.10400391 C-17.35082532 5.28945067 -16.35992447 3.69037661 -14.27909851 1.71677017 C-10.0385562 -0.72586617 -4.74848837 -0.04039471 0 0 Z " fill="#FBE3A8" transform="translate(305.421875,19.35302734375)"/>
<path d="M0 0 C0.33 0 0.66 0 1 0 C1 51.15 1 102.3 1 155 C34.99 155 68.98 155 104 155 C104 157.64 104 160.28 104 163 C69.68 163 35.36 163 0 163 C0 109.21 0 55.42 0 0 Z " fill="#CF6351" transform="translate(136,137)"/>
<path d="M0 0 C2.3545259 2.3545259 2.73147174 3.897976 3.6640625 7.07421875 C3.97762695 8.12319336 4.29119141 9.17216797 4.61425781 10.25292969 C4.94780273 11.38633789 5.28134766 12.51974609 5.625 13.6875 C8.30485695 22.61788201 11.12984467 31.46360132 14.25 40.25 C16.71029428 47.19050298 18.94253377 54.11003494 20.875 61.21875 C22.7146956 67.40217131 24.92412928 73.45634755 27.07373047 79.53759766 C29.28783388 85.84007357 31.24456018 92.12689092 32.9921875 98.57421875 C34.46916925 103.59481174 36.25508537 108.4986855 38.07080078 113.40576172 C39.16617819 116.40657321 40 118.7780507 40 122 C40.65895264 121.77860352 41.31790527 121.55720703 41.99682617 121.32910156 C65.90990629 113.30309266 65.90990629 113.30309266 77 110 C78.48306641 109.55333984 78.48306641 109.55333984 79.99609375 109.09765625 C82.32980311 108.3952777 84.66436595 107.69594513 87 107 C85.35 106.67 83.7 106.34 82 106 C82 105.67 82 105.34 82 105 C89.26153846 104.50769231 89.26153846 104.50769231 93 107 C93.66 107.66 94.32 108.32 95 109 C94.93237305 110.81982422 94.93237305 110.81982422 94 113 C91.66001319 114.18556237 89.54859343 115.05387619 87.08203125 115.8828125 C86.01418144 116.26132858 86.01418144 116.26132858 84.92475891 116.64749146 C82.62341078 117.45377377 80.31411506 118.23117462 78 119 C76.87050934 119.37650696 76.87050934 119.37650696 75.71820068 119.76062012 C71.16034115 121.26841516 66.58763069 122.7244865 62.00415039 124.15234375 C59.64191339 124.88922029 57.28282841 125.63564634 54.92382812 126.3828125 C53.41163397 126.8573309 51.89927067 127.33131072 50.38671875 127.8046875 C49.33686043 128.13737137 49.33686043 128.13737137 48.26579285 128.47677612 C45.3916648 129.3665003 43.0288291 130 40 130 C32.08976276 106.61013376 24.44586945 83.13422333 16.83812332 59.64464188 C16.06718832 57.2644746 15.29593263 54.88441143 14.52462769 52.50436401 C13.28297315 48.6724091 12.04241624 44.84010041 10.8027153 41.00751305 C10.3429207 39.586255 9.8829018 38.1650695 9.4226265 36.74396706 C8.36193913 33.46831926 7.30519507 30.19152461 6.25735474 26.91174316 C5.38075786 24.16952074 4.48126858 21.43585481 3.57150269 18.70446777 C3.10788569 17.28580702 2.6445099 15.86706741 2.18139648 14.44824219 C1.96255578 13.80478474 1.74371508 13.16132729 1.51824284 12.49837112 C0.13756404 8.21885639 -0.20134342 4.481339 0 0 Z " fill="#BCC5CC" transform="translate(209,366)"/>
<path d="M0 0 C0.33 0 0.66 0 1 0 C1.13657216 1.39303605 1.23271149 2.79006121 1.3125 4.1875 C1.37050781 4.96480469 1.42851562 5.74210938 1.48828125 6.54296875 C0.74339904 10.29121603 -1.05314982 11.63639967 -4 14 C-6.87346615 14.46996025 -9.14133911 14.63720107 -12.00317383 14.56762695 C-13.18932785 14.56872215 -13.18932785 14.56872215 -14.39944458 14.56983948 C-17.00268115 14.56636721 -19.60410889 14.5275257 -22.20703125 14.48828125 C-24.01591515 14.47895178 -25.82481171 14.4718363 -27.63371277 14.46684265 C-32.38678072 14.44778331 -37.13908053 14.39869187 -41.8918457 14.34332275 C-46.74484873 14.2921072 -51.59797629 14.2693237 -56.45117188 14.24414062 C-65.96778477 14.19057195 -75.48382842 14.10527214 -85 14 C-86.32 11.36 -87.64 8.72 -89 6 C-87.95652405 5.99191315 -86.9130481 5.98382629 -85.83795166 5.97549438 C-76.00870413 5.89804147 -66.17959517 5.81030428 -56.35052872 5.71247292 C-51.29719035 5.6625069 -46.24387293 5.61617681 -41.19042969 5.578125 C-36.31444412 5.54127617 -31.43863358 5.49491717 -26.56279755 5.44193649 C-24.70168882 5.42339043 -22.84054256 5.40828325 -20.97937775 5.39665604 C-18.37441549 5.37979727 -15.76985427 5.35076314 -13.16503906 5.31884766 C-12.39395813 5.31668747 -11.6228772 5.31452728 -10.82843018 5.31230164 C-5.58081765 5.266343 -5.58081765 5.266343 -1 3 C-0.67 2.01 -0.34 1.02 0 0 Z " fill="#AD6E43" transform="translate(427,166)"/>
<path d="M0 0 C2.4375 1.1875 2.4375 1.1875 5 3 C5.8125 5.6875 5.8125 5.6875 6 8 C2.39525564 10.40316291 0.79310409 10.24312609 -3.4909668 10.22705078 C-4.47185776 10.22748886 -4.47185776 10.22748886 -5.4725647 10.22793579 C-7.63158489 10.2265437 -9.79025893 10.21098857 -11.94921875 10.1953125 C-13.44708569 10.19158193 -14.94495507 10.18873517 -16.44282532 10.18673706 C-20.38350167 10.17910403 -24.32403038 10.15945845 -28.26464844 10.1373291 C-32.28643802 10.11686353 -36.30825147 10.10773382 -40.33007812 10.09765625 C-48.2201198 10.07621218 -56.11004153 10.04208029 -64 10 C-62.68 7.03 -61.36 4.06 -60 1 C-30.3 1.495 -30.3 1.495 0 2 C0 1.34 0 0.68 0 0 Z " fill="#BFC7CE" transform="translate(149,486)"/>
<path d="M0 0 C0.33 0 0.66 0 1 0 C1.5629986 11.7291375 0.9967847 20.41641319 -6.625 29.8125 C-12.32978399 35.84846059 -19.62693191 39.5612354 -27.91796875 40.23828125 C-35.27661289 40.40532335 -40.67509386 39.84785164 -47 36 C-48.04800781 35.38125 -48.04800781 35.38125 -49.1171875 34.75 C-55.88892926 30.25254132 -59.40284445 23.99288888 -62.375 16.5625 C-63.23019943 11.68786323 -63.16062811 6.93485247 -63 2 C-62.67 2 -62.34 2 -62 2 C-61.91363281 2.6290625 -61.82726562 3.258125 -61.73828125 3.90625 C-60.31468356 12.57844145 -56.93408848 19.3937157 -50 25 C-41.52447536 30.56621446 -34.07602645 32.36002704 -24 31 C-15.82593901 29.06938615 -9.14704571 24.65794079 -4.4296875 17.67578125 C-1.25321474 11.89460083 -0.15357034 6.56164193 0 0 Z " fill="#BEC6CD" transform="translate(223,40)"/>
<path d="M0 0 C6.29095451 4.34095459 11.41859611 9.69867627 14 17 C14.35647817 19.81899182 14.25940491 22.14654602 14 25 C10.27787162 20.41891892 10.27787162 20.41891892 8.71484375 18.0625 C3.65038353 10.61393455 -3.13995356 6.70983352 -12 5 C-20.47547886 4.05179669 -28.17160086 5.75643255 -35.296875 10.54296875 C-39.99439242 14.40164378 -43.04854964 18.73772417 -46 24 C-46.66 24.99 -47.32 25.98 -48 27 C-48.71460539 18.42473533 -46.53518775 12.99840691 -41.25 6.3125 C-30.59069652 -5.47733567 -13.82691363 -7.45980902 0 0 Z " fill="#ECF1F7" transform="translate(209,20)"/>
<path d="M0 0 C5.28 0 10.56 0 16 0 C16 5.28 16 10.56 16 16 C10.72 16 5.44 16 0 16 C0 10.72 0 5.44 0 0 Z " fill="#FB775D" transform="translate(256,148)"/>
<path d="M0 0 C2.45823172 3.68734758 3.01242616 6.69699971 4 11 C3.01 11 2.02 11 1 11 C-0.62950412 6.87831311 -1.26264601 4.29299643 0 0 Z " fill="#BFC7CF" transform="translate(221,402)"/>
</svg>
